<svg xmlns="http://www.w3.org/2000/svg" viewBox="0 0 814 1000" fill="white">
  <path d="M788.1 340.9c-5.8 4.5-108.2 62.2-108.2 190.5 0 148.4 130.3 200.9 134.2 202.2-.6 3.2-20.7 71.9-68.7 141.9-42.8 61.6-87.5 123.1-155.5 123.1s-85.5-39.5-164-39.5c-76 0-103.7 40.8-165.9 40.8s-105-43.1-150.3-117.1c-42.8-70.9-77-187.4-77-295.3 0-255.5 166.5-390.9 330.1-390.9 85.5 0 156.7 56.4 209.4 56.4 50.9 0 131.2-59.9 232.3-59.9 37.5 0 137.8 3.2 208.3 97.2zm-186.9-132.6c35.9-44.5 61.6-104.7 61.6-164.9 0-8.3-.6-16.5-2-24.1-58.4 2.2-128.1 38.8-170 91.3-33.3 40.8-61.6 102.4-61.6 162.6 0 8.7.6 17.3 2 24.8 4.5.6 9 1.4 13.5 1.4 52.3 0 119.1-35.3 156.5-91.1z"/>
</svg>
